<?xml version="1.0" encoding="utf-8"?>
<!-- Generator: Adobe Illustrator 20.1.0, SVG Export Plug-In . SVG Version: 6.00 Build 0)  -->
<svg version="1.1" id="Layer_1" xmlns="http://www.w3.org/2000/svg" xmlns:xlink="http://www.w3.org/1999/xlink" x="0px" y="0px"
	 viewBox="0 0 76 31" style="enable-background:new 0 0 76 31;" xml:space="preserve">
<style type="text/css">
	.st0{fill:#BBBBBB;}
</style>
<g>
	<path class="st0" d="M8.5,19c0,1.9,0,7.5,0.1,8.1C8.6,28,9,28.4,9.9,28.4h2.6c0.3,0,0.3,0.1,0.3,0.3v1c0,0.2,0,0.3-0.4,0.3
		c-0.6,0-1.8-0.1-5.7-0.1c-3.6,0-5.2,0.1-5.7,0.1c-0.3,0-0.3-0.1-0.3-0.3v-1c0-0.2,0-0.3,0.2-0.3h1.8c1.4,0,1.7-0.2,1.8-1.3
		c0-0.4,0.2-6.8,0.2-11.6v-4.7c0-2.7,0-7.2-0.1-7.6C4.6,2.3,4.2,2.2,3.1,2.2H0.7c-0.2,0-0.2-0.1-0.2-0.3v-1c0-0.2,0-0.3,0.2-0.3
		c0.5,0,1.9,0.1,5.8,0.1c0.7,0,3.2-0.1,4.5-0.1c4.6,0,6.8,0.5,9.2,2.1c1.9,1.3,3.1,3.6,3.1,6c0,5.2-3.9,8.4-10.4,8.4
		c-1.5,0-3.2,0-4.5-0.2L8.5,19L8.5,19z M8.5,15.4c0.8,0.2,2.2,0.4,3.8,0.4c2.5,0,4.7-1.4,5.8-2.8c0.9-1.2,1.1-2.7,1.1-4.2
		c0-5.4-5-6.8-7.4-6.8C11,2,9.3,2,8.5,2.2L8.5,15.4L8.5,15.4z"/>
	<path class="st0" d="M29.7,17.9c0-1.4-0.2-2.1-2.3-2.5c-0.3,0-0.4-0.1-0.4-0.3v-0.4c0-0.1,0.1-0.2,0.3-0.3c1.3-0.5,2.9-1.2,4.4-2
		c0.3-0.2,0.5-0.2,0.8-0.2c0.2,0,0.2,0.2,0.2,0.5c-0.1,0.7-0.1,3.3-0.1,6.7v4.5c0,1.6,0,3.1,0,3.5c0.1,0.8,0.2,1.1,0.7,1.1h1.9
		c0.3,0,0.4,0.1,0.4,0.4v0.7c0,0.3-0.1,0.4-0.4,0.4c-0.3,0-2.2-0.1-3.9-0.1c-2.4,0-4,0.1-4.4,0.1c-0.2,0-0.3-0.1-0.3-0.3v-0.8
		c0-0.2,0.1-0.3,0.4-0.3h2c0.5,0,0.6-0.2,0.7-0.8c0-1.2,0-2.5,0-3.7V17.9z M27.7,5.3c0-1.1,0.9-2.3,2.6-2.3c1.5,0,2.2,1.2,2.2,2.2
		c0,1.1-0.7,2.4-2.5,2.4C29.1,7.6,27.7,6.6,27.7,5.3z"/>
	<path class="st0" d="M55.6,27.6c0,0.7,0.4,0.9,0.9,0.9h1.3c0.4,0,0.5,0.1,0.5,0.4v0.7c0,0.3-0.1,0.5-0.3,0.5
		c-0.3,0-1.6-0.1-3.9-0.1c-2.1,0-3.4,0.1-3.7,0.1c-0.2,0-0.3-0.1-0.3-0.5v-0.7c0-0.3,0.1-0.4,0.5-0.4h1.2c0.5,0,0.8-0.2,0.8-0.9
		c0-1.1,0.1-2.4,0.1-3.5v-5.4c0-1.6,0-2.8-1.2-3.7c-1-0.7-2-0.7-3-0.7c-0.7,0-2.1,0.3-3.3,1.6c-0.8,0.9-0.9,2-0.9,2.8v8.5
		c0,1.1,0.1,1.4,1,1.4h1c0.3,0,0.4,0.1,0.4,0.4v0.7c0,0.2-0.1,0.4-0.3,0.4c-0.3,0-1.4-0.1-3.6-0.1c-2.1,0-3.4,0.1-3.7,0.1
		c-0.2,0-0.3-0.1-0.3-0.4v-0.7c0-0.2,0.1-0.4,0.4-0.4h1.2c0.5,0,0.8-0.1,0.8-0.8v-9.6c0-1.2-0.7-1.9-1.7-2.4l-0.3-0.2
		c-0.3-0.1-0.3-0.2-0.3-0.4v-0.2c0-0.2,0.2-0.3,0.4-0.4l3.5-2c0.3-0.2,0.6-0.3,0.7-0.3c0.2,0,0.3,0.2,0.3,0.5l0.3,2.5h0.1
		c1.2-1.5,3.6-3,5.6-3c1.2,0,2.5,0.2,3.5,0.9c1.2,0.8,2.3,2.9,2.3,3.9L55.6,27.6L55.6,27.6z"/>
	<path class="st0" d="M63.8,18.9c-0.1,0.4-0.1,1-0.1,2c0,4,2.5,7.1,5.8,7.1c2.5,0,4.3-1.4,5-2.8c0.1-0.2,0.2-0.2,0.4-0.2l0.5,0.3
		c0.1,0,0.2,0.2,0,0.6c-0.7,1.6-2.9,4.5-6.5,4.5c-2.3,0-4.9-0.7-6.5-2.9c-1.4-2.1-1.8-3.6-1.8-6.5c0-1.6,0.4-4.4,2.6-6.5
		c1.8-1.8,3.8-2.2,5.9-2.2c4.7,0,6,4.4,6,6c0,0.6-0.5,0.7-1.2,0.7C73.9,18.9,63.8,18.9,63.8,18.9z M70.3,17.7c0.8,0,1.1-0.2,1.1-0.6
		c0-0.9-0.5-3.7-3.2-3.7c-1.8,0-3.5,1.2-4.3,4.2L70.3,17.7L70.3,17.7z"/>
</g>
</svg>
