<?xml version="1.0" encoding="utf-8"?>
<!-- Generator: Adobe Illustrator 16.0.0, SVG Export Plug-In . SVG Version: 6.00 Build 0)  -->
<!DOCTYPE svg PUBLIC "-//W3C//DTD SVG 1.1//EN" "http://www.w3.org/Graphics/SVG/1.1/DTD/svg11.dtd">
<svg version="1.1" id="Layer_1" xmlns="http://www.w3.org/2000/svg" xmlns:xlink="http://www.w3.org/1999/xlink" x="0px" y="0px"
	 width="207.333px" height="86.333px" viewBox="0 0 207.333 86.333" enable-background="new 0 0 207.333 86.333"
	 xml:space="preserve">
<g>
	<path fill="#FFFFFF" d="M25.349,52.376c0,5.122,0.108,19.945,0.218,21.472c0.219,2.397,1.309,3.487,3.598,3.487h6.975
		c0.764,0,0.873,0.327,0.873,0.764v2.615c0,0.545-0.109,0.872-0.981,0.872c-1.526,0-4.905-0.327-15.15-0.327
		c-9.591,0-13.843,0.327-15.041,0.327c-0.763,0-0.872-0.327-0.872-0.763v-2.725c0-0.545,0.109-0.764,0.654-0.764h4.687
		c3.706,0,4.469-0.545,4.796-3.487c0.109-1.09,0.436-18.093,0.436-30.736V30.578c0-7.193-0.109-19.074-0.218-20.164
		c-0.218-2.18-1.308-2.397-4.251-2.397H4.857c-0.545,0-0.653-0.218-0.653-0.872V4.528c0-0.545,0.108-0.763,0.653-0.763
		c1.199,0,5.123,0.327,15.478,0.327c1.962,0,8.393-0.327,11.989-0.327c12.316,0,18.094,1.199,24.306,5.449
		c5.122,3.488,8.284,9.592,8.284,15.805c0,13.733-10.355,22.234-27.686,22.234c-4.032,0-8.393-0.108-11.88-0.545V52.376z
		 M25.349,42.785c2.181,0.654,5.776,0.981,10.027,0.981c6.649,0,12.534-3.597,15.368-7.412c2.398-3.16,2.834-7.193,2.834-11.008
		c0-14.278-13.297-18.094-19.729-18.094c-1.852,0-6.32,0-8.501,0.764V42.785z"/>
	<path fill="#FFFFFF" d="M81.593,49.542c0-3.706-0.653-5.668-6.104-6.54c-0.763-0.108-0.981-0.326-0.981-0.763v-0.98
		c0-0.327,0.219-0.545,0.764-0.764c3.488-1.308,7.629-3.052,11.771-5.341c0.871-0.436,1.416-0.653,2.07-0.653
		c0.545,0,0.654,0.545,0.545,1.308c-0.218,1.854-0.218,8.72-0.218,17.766v11.881c0,4.251,0,8.175,0.108,9.373
		c0.219,2.071,0.545,2.834,1.744,2.834h5.014c0.873,0,1.09,0.327,1.09,0.981v1.853c0,0.763-0.217,1.09-0.98,1.09
		c-0.873,0-5.886-0.327-10.463-0.327c-6.322,0-10.572,0.327-11.771,0.327c-0.545,0-0.872-0.218-0.872-0.872v-2.18
		c0-0.654,0.327-0.872,1.09-0.872h5.341c1.199,0,1.635-0.436,1.744-2.18c0.108-3.27,0.108-6.648,0.108-9.918V49.542z M76.471,16.082
		c0-2.834,2.397-6.104,6.866-6.104c4.032,0,5.886,3.27,5.886,5.776c0,2.942-1.962,6.431-6.539,6.431
		C80.176,22.185,76.471,19.678,76.471,16.082z"/>
	<path fill="#FFFFFF" d="M150.369,75.374c0,1.744,0.982,2.289,2.398,2.289h3.488c0.98,0,1.199,0.327,1.199,0.981v1.743
		c0,0.764-0.219,1.199-0.873,1.199c-0.762,0-4.141-0.327-10.354-0.327c-5.559,0-9.047,0.327-9.811,0.327
		c-0.652,0-0.871-0.327-0.871-1.199v-1.743c0-0.764,0.326-0.981,1.416-0.981h3.162c1.199,0,2.07-0.545,2.18-2.507
		c0.109-2.834,0.217-6.321,0.217-9.155V51.614c0-4.36,0-7.521-3.16-9.81c-2.615-1.962-5.232-1.962-7.957-1.962
		c-1.744,0-5.559,0.763-8.828,4.25c-2.18,2.398-2.506,5.341-2.506,7.412v22.562c0,2.942,0.326,3.597,2.615,3.597h2.725
		c0.873,0,1.09,0.327,1.09,1.09v1.854c0,0.653-0.217,0.98-0.762,0.98c-0.764,0-3.707-0.327-9.482-0.327
		c-5.561,0-9.047,0.327-9.701,0.327c-0.545,0-0.764-0.327-0.764-0.98v-1.962c0-0.654,0.219-0.981,1.09-0.981h3.162
		c1.416,0,2.18-0.327,2.18-2.18V49.978c0-3.27-1.744-5.122-4.469-6.431l-0.873-0.436c-0.762-0.327-0.871-0.654-0.871-0.981v-0.545
		c0-0.545,0.436-0.871,0.98-1.09l9.373-5.231c0.873-0.436,1.527-0.763,1.963-0.763c0.545,0,0.762,0.436,0.871,1.308l0.764,6.648
		h0.217c3.162-3.924,9.482-7.956,14.934-7.956c3.27,0,6.648,0.653,9.264,2.397c3.27,2.18,5.994,7.63,5.994,10.354V75.374z"/>
	<path fill="#FFFFFF" d="M172.061,52.267c-0.217,0.981-0.326,2.725-0.326,5.231c0,10.682,6.758,18.747,15.477,18.747
		c6.648,0,11.336-3.814,13.189-7.411c0.217-0.437,0.652-0.654,0.98-0.545l1.416,0.763c0.328,0.109,0.545,0.436,0,1.635
		c-1.961,4.36-7.629,11.881-17.33,11.881c-6.211,0-13.078-1.854-17.111-7.739c-3.814-5.559-4.795-9.591-4.795-17.221
		c0-4.251,1.09-11.554,6.865-17.33c4.688-4.796,10.137-5.776,15.586-5.776c12.535,0,16.023,11.771,16.023,16.021
		c0,1.526-1.309,1.744-3.053,1.744H172.061z M189.391,48.998c2.072,0,2.943-0.545,2.943-1.526c0-2.507-1.309-9.7-8.393-9.7
		c-4.795,0-9.373,3.161-11.443,11.227H189.391z"/>
</g>
</svg>
